<svg width="81" height="26" viewBox="0 0 81 26" fill="none" xmlns="http://www.w3.org/2000/svg">
<path d="M45.8395 20.6982H36.9939V23.4757H45.8395V20.6982Z" fill="#FFB800"/>
<path d="M76.4289 6.70156H74.0651C71.6074 6.70156 70.0677 8.00189 70.0677 10.7436C70.0677 12.65 71.0627 13.6697 72.3215 14.1693L69.3853 18.791H73.4292L75.5021 14.5565C75.6115 14.547 75.7188 14.5361 75.8228 14.5233V18.791H79.65V6.70156H76.4289ZM75.571 13.3693C74.4329 13.3693 74.084 12.5789 74.084 11.0914C74.084 9.70632 74.4714 8.95037 75.3496 8.95037C75.6311 8.95037 75.8133 8.9802 75.8133 8.9802L75.8228 8.94426V13.3693H75.571Z" fill="#FFB800"/>
<path d="M7.33017 18.7904H11.3911V6.70156H1.35001V18.7904H5.41093V9.7212H7.33017V18.7904Z" fill="#FFB800"/>
<path d="M20.2118 6.4362C18.5587 6.4362 17.7673 7.42806 17.4498 8.88029H17.1548L16.9359 6.72704H13.8079V23.4749H17.8237V17.0688H18.075C18.3721 18.2146 19.0614 19.0016 20.4794 19.0016C23.0786 19.0016 23.7158 15.8091 23.7158 12.1766C23.7158 8.82537 22.4873 6.4362 20.2125 6.4362M18.6411 15.9596C17.8793 15.9596 17.5653 15.005 17.5653 12.563C17.5653 10.1209 18.006 9.45249 18.6411 9.45249C19.1938 9.45249 19.6739 10.146 19.6739 12.4946C19.6739 15.3006 19.2452 15.9596 18.6411 15.9596Z" fill="#FFB800"/>
<path d="M52.7392 16.0715C51.8704 16.0715 51.5346 15.1698 51.5346 12.8763C51.5346 10.5827 51.6951 9.34135 52.5631 9.34135C53.4312 9.34135 53.6558 10.5624 53.6558 12.517L57.4604 13.8316C57.8237 9.55897 56.9711 6.4105 52.4301 6.4105C48.5093 6.4105 47.6264 9.13458 47.6264 12.6872C47.6264 17.7882 49.7603 19.0024 52.7708 19.0024C55.5898 19.0024 57.2253 17.7217 57.4612 14.7861H53.6636C53.6016 15.6315 53.2904 16.0715 52.7392 16.0715Z" fill="#FFB800"/>
<path d="M49.7595 12.1688H56.8654L57.4603 12.8501V13.8312H49.7595V12.1688Z" fill="#FFB800"/>
<path d="M41.544 15.9336C40.6752 15.9336 40.5928 14.5824 40.5928 12.876C40.5928 10.617 40.6097 9.47869 41.4785 9.47869C42.3473 9.47869 42.4155 10.562 42.4155 12.5167H46.2202C46.361 9.47869 45.7471 6.41018 41.4165 6.41018C37.4957 6.41018 36.6128 9.13425 36.6128 12.6868C36.6128 17.7878 38.7461 19.0021 41.5418 19.0021C44.1623 19.0021 46.2202 17.5424 46.2202 14.1743H42.4155C42.4155 15.3668 42.1959 15.9336 41.544 15.9336Z" fill="#FFB800"/>
<path d="M30.2336 6.41018C27.4189 6.41018 25.2138 7.94846 25.2138 12.5804C25.2138 17.2123 26.7789 19.0021 30.2336 19.0021C33.6884 19.0021 35.2795 17.2957 35.2795 12.5804C35.2795 7.86513 33.0674 6.41018 30.2336 6.41018ZM30.2336 16.0129C29.2297 16.0129 29.2121 14.518 29.2121 12.5804C29.2121 10.7817 29.298 9.55799 30.2336 9.55799C31.1693 9.55799 31.289 10.838 31.289 12.5804C31.289 14.3227 31.2369 16.0129 30.2336 16.0129Z" fill="#FFB800"/>
<path d="M64.8609 7.72382C63.1346 7.72382 62.382 8.59839 62.0441 9.76852L61.7828 9.73804C61.8891 7.82619 62.6537 6.43972 64.8602 6.19701C66.0951 6.06142 68.5463 5.88447 68.5463 5.88447V2.52446C68.5463 2.52446 67.4441 2.62344 64.8602 2.97531C59.9523 3.64379 58.8364 7.00856 58.8364 11.6106C58.8364 16.574 60.5824 19.0018 63.9217 19.0018C67.261 19.0018 68.9027 16.6926 68.9027 12.9177C68.9027 10.8011 68.5598 7.72382 64.8609 7.72382ZM63.8837 16.0126C63.0987 16.0126 62.8797 15.2797 62.8797 13.1652C62.8797 11.0506 63.2212 10.3171 63.8837 10.3171C64.5462 10.3171 64.8609 10.8906 64.8609 13.1652C64.8609 15.4398 64.668 16.0126 63.8837 16.0126Z" fill="#FFB800"/>
</svg>
